<?xml version="1.0" encoding="utf-8"?>
<!-- Generator: Adobe Illustrator 21.0.0, SVG Export Plug-In . SVG Version: 6.00 Build 0)  -->
<svg version="1.1" id="Layer_1" xmlns="http://www.w3.org/2000/svg" xmlns:xlink="http://www.w3.org/1999/xlink" x="0px" y="0px"
	 viewBox="0 0 339.8 497.3" style="enable-background:new 0 0 339.8 497.3;" xml:space="preserve">
<style type="text/css">
	.st0{fill:none;stroke:#FFEA00;stroke-width:0.5;stroke-miterlimit:10;}
</style>
<title>cover</title>
<polygon id="_Path_" class="st0" points="170.2,455.5 170.7,455.2 170.2,455.2 "/>
<polygon id="_Path_2" class="st0" points="70.2,415 70.8,415 70.7,414.8 "/>
<polygon id="_Path_3" class="st0" points="70.7,414.7 70.4,414.4 70.2,415 70.7,414.8 "/>
<polygon id="_Path_4" class="st0" points="170.7,390.7 170.3,389.7 170.3,390.6 "/>
<polygon id="_Path_5" class="st0" points="170.7,455.2 170.2,455.1 170.2,455.2 "/>
<polygon id="_Path_6" class="st0" points="69.8,413.8 70.2,415 70.4,414.4 "/>
<polygon id="_Path_7" class="st0" points="10.5,230.7 10.6,231.1 10.7,230.8 "/>
<polygon id="_Path_8" class="st0" points="10.7,230.7 10.7,230.4 10.5,230.7 10.7,230.8 "/>
<polygon id="_Path_9" class="st0" points="32.7,330.7 32.7,331.2 32.8,331.3 "/>
<polygon id="_Path_10" class="st0" points="32.4,330.8 32.7,331.2 32.7,330.7 "/>
<polygon id="_Path_11" class="st0" points="170.3,390.7 170.7,390.7 170.3,390.6 "/>
<polygon id="_Path_12" class="st0" points="170.7,104.7 170.6,104.4 170.6,104.7 "/>
<polygon id="_Path_13" class="st0" points="170.7,215.2 170.5,215.2 170.5,215.4 "/>
<polygon id="_Path_14" class="st0" points="170.7,54.7 170.6,54.7 170.6,54.8 "/>
<polygon id="_Path_15" class="st0" points="170.7,254.7 170.4,254.5 170.4,254.8 "/>
<polygon id="_Path_16" class="st0" points="170.4,255.2 170.7,254.7 170.4,254.8 "/>
<polygon id="_Path_17" class="st0" points="150.2,324.7 170.2,314.7 150,315 "/>
<polygon id="_Path_18" class="st0" points="160.5,334.7 170.2,314.7 150.2,324.7 "/>
<polygon id="_Path_19" class="st0" points="126.6,324.7 130.7,335 130.5,314.8 "/>
<polygon id="_Path_20" class="st0" points="140.2,325.2 140.2,324.7 139.7,325.2 "/>
<polygon id="_Path_21" class="st0" points="140.2,324.7 150,315 140.3,312.8 "/>
<polygon id="_Path_22" class="st0" points="130.5,358.8 130.6,358.7 130.5,358.7 "/>
<polygon id="_Path_23" class="st0" points="110.2,364.7 110.2,365.2 110.6,364.8 "/>
<path id="_Path_24" class="st0" d="M150.2,356.7"/>
<path id="_Path_25" class="st0" d="M150.2,356.7"/>
<polygon id="_Path_26" class="st0" points="140.2,341.2 140.3,341 140.2,340.9 "/>
<polygon id="_Path_27" class="st0" points="140.2,324.7 140.3,312.8 130.5,314.8 "/>
<polygon id="_Path_28" class="st0" points="120.2,251.2 100.7,251.2 100.6,251.2 120.7,255.2 "/>
<polygon id="_Path_29" class="st0" points="110.8,364.7 130.5,358.8 120.7,355.2 "/>
<polygon id="_Path_30" class="st0" points="128.9,280.6 128.7,280.7 127.9,280.8 128.7,281 "/>
<polygon id="_Path_31" class="st0" points="120.6,346.8 136.6,348.8 130.7,335 "/>
<polygon id="_Path_32" class="st0" points="100.7,355.2 110.2,364.7 110.6,364.8 110.7,364.7 110.8,364.7 120.7,355.2 "/>
<polygon id="_Path_33" class="st0" points="132.3,254.6 120.2,244.7 120.2,251.2 120.7,251.2 "/>
<polygon id="_Path_34" class="st0" points="100.6,251.2 80.7,255 80.3,254.9 80.2,255 100.7,255.2 "/>
<polygon id="_Path_35" class="st0" points="80.2,255 76.7,265 100.7,255.2 "/>
<polygon id="_Path_36" class="st0" points="100.7,255.2 120.7,255.2 100.6,251.2 100.6,251.2 "/>
<path id="_Path_37" class="st0" d="M100.6,251.2"/>
<polygon id="_Path_38" class="st0" points="100.2,251.2 100.2,251.2 98.3,244.7 80.2,254.9 80.5,255 "/>
<polygon id="_Path_39" class="st0" points="130.6,358.7 130.7,358.7 150.2,356.7 136.6,348.8 130.5,358.7 "/>
<polygon id="_Path_40" class="st0" points="127.9,280.8 100.2,273.7 100.2,282.3 100.7,282.7 "/>
<polygon id="_Path_41" class="st0" points="140.3,312.8 150.7,294.7 122.7,298.7 "/>
<polygon id="_Path_42" class="st0" points="130.7,261.2 142.7,269.2 132.5,254.7 120.7,255.2 "/>
<polygon id="_Path_43" class="st0" points="150.7,294.7 160.5,273.2 160,273.2 122.7,298.7 "/>
<polygon id="_Path_44" class="st0" points="122.7,298.7 160,273.2 158.7,273.2 128.9,280.6 128.7,281 127.9,280.8 100.7,282.7 "/>
<polygon id="_Path_45" class="st0" points="150,315 150.7,294.7 140.3,312.8 "/>
<polygon id="_Path_46" class="st0" points="136.6,348.8 140.2,340.9 130.7,335 "/>
<polygon id="_Path_47" class="st0" points="80.2,254.8 80.2,255 80.3,254.9 "/>
<polygon id="_Path_48" class="st0" points="70.2,284.7 100.2,282.7 100.2,282.3 76.7,265 60.2,250.7 "/>
<polygon id="_Path_49" class="st0" points="70.2,284.7 80.7,304.7 100.7,282.7 100.2,282.3 100.2,282.7 "/>
<polygon id="_Path_50" class="st0" points="80.3,254.9 98.5,244.7 100.6,251.2 110.2,239.2 98.7,244.7 80.7,234.7 80.2,235.1 
	80.2,254.8 "/>
<polygon id="_Path_51" class="st0" points="38.7,227.2 30.2,227.2 30.2,244.7 20.6,248.5 20.6,248.7 30.4,283.8 30.2,245 "/>
<polygon id="_Path_52" class="st0" points="18.6,234.7 14.7,242.7 20.1,248.7 20.5,247.9 "/>
<polygon id="_Path_53" class="st0" points="34.7,264.7 40.7,240.7 38.7,227 38.7,227.2 30.2,245 30.4,283.8 30.7,284.7 "/>
<polygon id="_Path_54" class="st0" points="50.2,184.7 20.7,214.7 30.4,226.3 "/>
<polygon id="_Path_55" class="st0" points="120.7,251.2 120.2,251.2 120.7,255.2 132.5,254.7 132.3,254.6 "/>
<polygon id="_Path_56" class="st0" points="30.7,226.7 30.2,227 30.2,227.2 38.7,227.2 38.7,227 38.7,226.7 39,226.1 50.2,184.7 
	30.4,226.3 "/>
<polygon id="_Path_57" class="st0" points="40.7,240.7 34.7,264.7 30.7,284.7 30.4,283.8 30.4,285.1 40.7,282.7 "/>
<polygon id="_Path_58" class="st0" points="46.4,210.7 50.2,184.7 39,226.1 "/>
<polygon id="_Path_59" class="st0" points="84.4,362.7 70.4,414.4 70.7,414.7 70.7,414.8 100.2,404.7 90.2,374.7 "/>
<polygon id="_Path_60" class="st0" points="40.7,282.7 30.4,285.1 50.2,314.7 "/>
<polygon id="_Path_61" class="st0" points="90.2,374.7 130.6,405.1 102.2,373.5 "/>
<polygon id="_Path_62" class="st0" points="100.2,404.7 130.6,405.1 90.2,374.7 "/>
<polygon id="_Path_63" class="st0" points="70.2,344.7 84.4,362.7 86.7,352.7 "/>
<polygon id="_Path_64" class="st0" points="50.2,314.7 50.7,355.2 70.2,344.7 "/>
<polygon id="_Path_65" class="st0" points="50.7,355.2 84.4,362.7 70.2,344.7 "/>
<polygon id="_Path_66" class="st0" points="30,227.2 29.9,227.2 18.6,234.7 20.5,247.9 "/>
<polygon id="_Path_67" class="st0" points="100.7,355.2 97.3,357 99,362.7 110.2,365.2 110.2,364.7 "/>
<polygon id="_Path_68" class="st0" points="80.2,254.8 80.2,235.1 60.7,250.7 "/>
<polygon id="_Path_69" class="st0" points="70.7,225 60.7,194.7 60.2,235.7 60.2,250.7 76.7,265 80.2,255 80.2,254.8 60.7,250.7 
	80.2,235.1 80.2,234.7 60.7,235.2 "/>
<polygon id="_Path_70" class="st0" points="120.2,244.7 132.3,254.6 132.4,254.6 130.5,243.3 120.7,244.7 110.7,239 110.5,239.1 
	120.2,251.2 "/>
<polygon id="_Path_71" class="st0" points="132.5,254.7 132.4,254.6 132.3,254.6 "/>
<polygon id="_Path_72" class="st0" points="100.6,251.2 100.7,251.2 120.2,251.2 110.5,239.1 110.2,239.2 "/>
<polygon id="_Path_73" class="st0" points="110.7,222.7 100.7,204.7 96.7,218.8 "/>
<polygon id="_Path_74" class="st0" points="80.7,216.8 100.7,204.7 60.7,194.7 "/>
<polygon id="_Path_75" class="st0" points="140.2,174.7 86.7,164.7 60.7,194.7 "/>
<polygon id="_Path_76" class="st0" points="86.7,164.7 60.2,165.2 60.7,194.7 "/>
<polygon id="_Path_77" class="st0" points="60.2,165.2 50.2,165.2 50.2,166.5 60.7,194.7 "/>
<polygon id="_Path_78" class="st0" points="96.7,218.8 100.7,204.7 80.7,216.8 "/>
<polygon id="_Path_79" class="st0" points="170.2,390.7 170.2,390.6 150.1,386.7 140.6,392.7 "/>
<polygon id="_Path_80" class="st0" points="60.7,194.7 50.2,166.5 50.2,184.7 46.4,210.7 "/>
<polygon id="_Path_81" class="st0" points="100.7,204.7 140.2,174.7 60.7,194.7 "/>
<polygon id="_Path_82" class="st0" points="132.7,388.7 140.2,384.7 136.7,376.7 "/>
<polygon id="_Path_83" class="st0" points="102.2,373.5 122.7,384.7 110.2,371.3 110.2,371.7 110.2,371.3 102.5,373.2 110.2,365.2 
	99,362.7 "/>
<polygon id="_Path_84" class="st0" points="0.5,188.7 6.7,202.7 4.2,178.7 "/>
<polygon id="_Path_85" class="st0" points="80.7,125 70.7,145.2 94.7,128.7 "/>
<polygon id="_Path_86" class="st0" points="134.7,273.2 128.9,280.6 158.7,273.2 "/>
<polygon id="_Path_87" class="st0" points="60.2,145.7 50.2,164.7 50.2,165.2 60.2,165.2 "/>
<polygon id="_Path_88" class="st0" points="110.4,239 110.2,239.2 110.5,239.1 "/>
<polygon id="_Path_89" class="st0" points="120.6,110.8 110.6,124.8 140.5,117 "/>
<polygon id="_Path_90" class="st0" points="122.7,384.7 128.7,378.7 122.7,371.2 120.7,376.7 "/>
<polygon id="_Path_91" class="st0" points="122.7,371.2 110.7,371.2 110.2,371.3 120.7,376.7 "/>
<polygon id="_Path_92" class="st0" points="130.6,371 122.7,371.2 128.7,378.7 "/>
<polygon id="_Path_93" class="st0" points="132.7,388.7 136.7,376.7 131,371 130.6,371 128.7,378.7 "/>
<polygon id="_Path_94" class="st0" points="140.2,384.7 140.2,371.5 136.7,376.7 "/>
<polygon id="_Path_95" class="st0" points="140.2,371.5 140.2,370.7 131,371 136.7,376.7 "/>
<polygon id="_Path_96" class="st0" points="51.1,72.9 20.7,84.7 90.7,94.7 "/>
<polygon id="_Path_97" class="st0" points="130.7,462.7 120.7,445 110.7,444.7 "/>
<polygon id="_Path_98" class="st0" points="156.1,372.7 150.2,378.7 166.6,380.7 "/>
<polygon id="_Path_99" class="st0" points="140.7,455.2 120.7,445 130.7,462.7 "/>
<polygon id="_Path_100" class="st0" points="110.7,444.7 120.7,445 100.2,424.7 "/>
<polygon id="_Path_101" class="st0" points="156.7,464.7 140.7,455.2 130.7,462.7 "/>
<polygon id="_Path_102" class="st0" points="170.2,394.7 140.7,392.7 160.7,396.7 "/>
<polygon id="_Path_103" class="st0" points="132.7,388.7 128.7,378.7 122.7,384.7 140.7,392.7 140.2,384.7 "/>
<polygon id="_Path_104" class="st0" points="150.7,264.8 150.2,263.8 150.2,264.3 "/>
<polygon id="_Path_105" class="st0" points="130.7,424.7 130.6,405.1 100.2,404.7 "/>
<polygon id="_Path_106" class="st0" points="120.7,445 130.7,424.7 100.2,404.7 "/>
<polygon id="_Path_107" class="st0" points="49.7,165.2 50.2,166.5 50.2,165.2 "/>
<polygon id="_Path_108" class="st0" points="108.7,50.7 51.1,72.9 90.7,94.7 "/>
<polygon id="_Path_109" class="st0" points="100.2,424.7 120.7,445 100.2,404.7 "/>
<polygon id="_Path_110" class="st0" points="94.7,416.7 100.2,424.7 100.2,404.7 "/>
<polygon id="_Path_111" class="st0" points="90.2,374.7 102.2,373.5 90.2,360.7 "/>
<polygon id="_Path_112" class="st0" points="130.5,314.8 110.7,320.7 110.6,320.8 126.1,324.7 120.6,346.8 130.7,335 126.6,324.7 
	"/>
<polygon id="_Path_113" class="st0" points="110.6,320.8 110.7,320.7 130.5,314.8 122.7,298.7 110.2,320.7 "/>
<polygon id="_Path_114" class="st0" points="140.3,312.8 122.7,298.7 130.5,314.8 "/>
<polygon id="_Path_115" class="st0" points="110.2,334.7 120.6,346.8 126.1,324.7 "/>
<polygon id="_Path_116" class="st0" points="110.2,321.5 110.2,320.7 90.7,334.7 93.6,344.6 98.7,338.7 "/>
<polygon id="_Path_117" class="st0" points="98.7,338.7 93.6,344.6 95.3,350.3 100.7,348.7 "/>
<polygon id="_Path_118" class="st0" points="98.7,338.7 100.7,348.7 120.6,346.8 110.2,334.7 "/>
<polygon id="_Path_119" class="st0" points="90.2,360.7 102.2,373.5 99,362.7 "/>
<polygon id="_Path_120" class="st0" points="97.3,357 90.2,360.7 99,362.7 "/>
<polygon id="_Path_121" class="st0" points="110.6,320.8 110.2,320.7 110.2,321.5 "/>
<polygon id="_Path_122" class="st0" points="93.6,344.6 86.7,352.7 95.3,350.3 "/>
<polygon id="_Path_123" class="st0" points="80.7,304.7 70.2,344.7 86.7,352.7 90.7,334.7 "/>
<polygon id="_Path_124" class="st0" points="90.7,334.7 86.7,352.7 93.6,344.6 "/>
<polygon id="_Path_125" class="st0" points="110.2,320.7 122.7,298.7 90.7,334.7 "/>
<polygon id="_Path_126" class="st0" points="80.7,216.8 60.7,194.7 70.7,225 "/>
<polygon id="_Path_127" class="st0" points="60.7,194.7 46.4,210.7 60.2,235.7 "/>
<polygon id="_Path_128" class="st0" points="29.9,227.2 30,227.2 30,227.2 "/>
<polygon id="_Path_129" class="st0" points="110.2,334.7 126.1,324.7 110.6,320.8 110.2,321.5 "/>
<polygon id="_Path_130" class="st0" points="39,226.1 38.7,227 40.7,240.7 46.4,210.7 "/>
<polygon id="_Path_131" class="st0" points="60.2,235.7 40.7,240.7 60.2,250.7 "/>
<polygon id="_Path_132" class="st0" points="38.7,226.7 38.7,227 39,226.1 "/>
<polygon id="_Path_133" class="st0" points="46.4,210.7 40.7,240.7 60.2,235.7 "/>
<polygon id="_Path_134" class="st0" points="100.7,282.7 80.7,304.7 122.7,298.7 "/>
<polygon id="_Path_135" class="st0" points="60.2,250.7 40.7,240.7 70.2,284.7 "/>
<polygon id="_Path_136" class="st0" points="70.2,284.7 70.2,344.7 80.7,304.7 "/>
<polygon id="_Path_137" class="st0" points="98.7,338.7 110.2,334.7 110.2,321.5 "/>
<polygon id="_Path_138" class="st0" points="40.7,282.7 50.2,314.7 70.2,284.7 "/>
<polygon id="_Path_139" class="st0" points="40.7,240.7 40.7,282.7 70.2,284.7 "/>
<polygon id="_Path_140" class="st0" points="150.2,415.2 130.7,424.7 150.2,450.7 "/>
<polygon id="_Path_141" class="st0" points="100.7,114.7 120.7,110.7 90.7,94.7 "/>
<polygon id="_Path_142" class="st0" points="108.2,50.7 108.2,50.6 108.1,50.6 "/>
<polygon id="_Path_143" class="st0" points="80.7,434.7 90.7,444.7 100.7,454.7 110.7,444.7 "/>
<polygon id="_Path_144" class="st0" points="160.7,74.7 150.7,44.7 108.7,50.7 "/>
<polygon id="_Path_145" class="st0" points="100.7,454.7 120.6,474.7 130.6,484.7 130.7,462.7 "/>
<polygon id="_Path_146" class="st0" points="20.7,84.7 20.4,85.4 40.7,105.2 90.7,94.7 120.7,110.7 160.7,74.7 90.7,94.7 "/>
<polygon id="_Path_147" class="st0" points="90.7,94.7 160.7,74.7 108.7,50.7 "/>
<polygon id="_Path_148" class="st0" points="14.7,242.7 12.7,260.7 20.1,248.7 "/>
<path id="_Path_149" class="st0" d="M170.7,4.7"/>
<polyline id="_Path_150" class="st0" points="170.7,4.7 136.7,14.7 170.7,24.7 "/>
<polyline id="_Path_151" class="st0" points="170.7,4.7 138.7,0.7 136.7,14.7 170.7,4.7 "/>
<polygon id="_Path_152" class="st0" points="138.7,0.7 120.7,6.7 136.7,14.7 "/>
<polygon id="_Path_153" class="st0" points="100.2,424.7 80.7,434.7 110.7,444.7 "/>
<polygon id="_Path_154" class="st0" points="94.7,416.7 80.7,434.7 100.2,424.7 "/>
<polygon id="_Path_155" class="st0" points="130.7,34.7 150.7,44.7 136.7,14.7 "/>
<polygon id="_Path_156" class="st0" points="86.7,164.7 110.6,124.8 94.7,128.7 90.7,144.7 "/>
<polygon id="_Path_157" class="st0" points="140.2,174.7 110.6,124.8 86.7,164.7 "/>
<polygon id="_Path_158" class="st0" points="120.7,6.7 108.7,24.7 136.7,14.7 "/>
<polygon id="_Path_159" class="st0" points="80.7,124.7 100.7,114.7 90.7,94.7 "/>
<polygon id="_Path_160" class="st0" points="90.7,144.7 94.7,128.7 70.7,145.2 86.7,164.7 "/>
<polygon id="_Path_161" class="st0" points="30.4,283.8 20.6,248.7 20.6,248.5 20.1,248.7 12.7,260.7 30.4,285.1 "/>
<polygon id="_Path_162" class="st0" points="130.6,484.7 150.5,494.7 156.7,464.7 "/>
<polygon id="_Path_163" class="st0" points="12.2,324.7 20.4,334.7 20.7,314.7 "/>
<polygon id="_Path_164" class="st0" points="86.7,164.7 70.7,145.2 60.2,165.2 "/>
<polygon id="_Path_165" class="st0" points="60.7,144.7 80.7,124.7 40.7,105.2 "/>
<polygon id="_Path_166" class="st0" points="40.7,105.2 21.2,105.2 60.7,144.7 "/>
<polygon id="_Path_167" class="st0" points="40.7,105.2 80.7,124.7 90.7,94.7 "/>
<polygon id="_Path_168" class="st0" points="20.9,105.2 50.2,164.7 60.2,145.7 60.2,145.2 60.4,145.2 60.7,144.7 21.2,105.2 "/>
<polygon id="_Path_169" class="st0" points="60.2,145.7 60.4,145.2 60.2,145.2 "/>
<polygon id="_Path_170" class="st0" points="60.2,165.2 70.7,145.2 60.4,145.2 60.2,145.7 "/>
<polygon id="_Path_171" class="st0" points="108.1,50.6 72.7,22.7 60.7,44.7 "/>
<polygon id="_Path_172" class="st0" points="20.9,105.2 20.7,105.2 20.7,104.7 4.2,154.7 50.2,164.7 "/>
<polygon id="_Path_173" class="st0" points="36.9,355.2 50.7,394.7 50.7,355.2 "/>
<polygon id="_Path_174" class="st0" points="50.2,166.5 49.7,165.2 50.2,165.2 50.2,164.7 4.2,154.7 50.2,184.7 "/>
<polygon id="_Path_175" class="st0" points="20.7,104.7 14.7,98.7 8.7,132.7 4.2,154.7 "/>
<polygon id="_Path_176" class="st0" points="20.2,85.8 14.7,98.7 20.7,104.7 "/>
<polygon id="_Path_177" class="st0" points="70.8,415 80.7,434.7 94.7,416.7 "/>
<polygon id="_Path_178" class="st0" points="20.2,85.2 20.4,85.4 20.7,84.7 20.3,84.4 20.2,84.7 20.2,84.3 12.7,78.7 14.7,98.7 
	20.2,85.8 "/>
<polygon id="_Path_179" class="st0" points="10.7,230.8 18.6,234.7 20.7,214.7 10.7,230.4 10.7,230.7 "/>
<polygon id="_Path_180" class="st0" points="6.7,246.7 12.7,260.7 14.7,242.7 "/>
<polygon id="_Path_181" class="st0" points="18.6,234.7 10.7,230.8 10.6,231.1 14.7,242.7 "/>
<polygon id="_Path_182" class="st0" points="32.8,331.3 36.7,354.7 36.9,355.2 50.7,355.2 "/>
<polygon id="_Path_183" class="st0" points="6.7,202.7 10.7,230.4 20.7,214.7 "/>
<polygon id="_Path_184" class="st0" points="4.2,154.7 4.2,178.7 6.7,202.7 20.7,214.7 "/>
<polygon id="_Path_185" class="st0" points="50.2,184.7 4.2,154.7 20.7,214.7 "/>
<polygon id="_Path_186" class="st0" points="50.7,394.7 69.8,413.8 50.7,355.2 "/>
<polygon id="_Path_187" class="st0" points="12.7,260.7 14.7,284.7 30.4,285.1 "/>
<polygon id="_Path_188" class="st0" points="100.2,404.7 70.7,414.8 70.8,415 94.7,416.7 "/>
<polygon id="_Path_189" class="st0" points="72.7,22.7 48.7,34.7 60.7,44.7 "/>
<polygon id="_Path_190" class="st0" points="48.7,34.7 30.7,58.7 60.7,44.7 "/>
<polygon id="_Path_191" class="st0" points="84.4,362.7 50.7,355.2 69.8,413.8 70.4,414.4 "/>
<polygon id="_Path_192" class="st0" points="136.7,14.7 108.7,24.7 130.7,34.7 "/>
<polygon id="_Path_193" class="st0" points="108.2,50.6 108.2,24.7 108.2,50.6 108.7,50.7 130.7,34.7 108.7,24.7 72.7,22.7 
	108.1,50.6 "/>
<polygon id="_Path_194" class="st0" points="20.2,84.7 20.3,84.4 20.2,84.3 "/>
<polygon id="_Path_195" class="st0" points="20.3,84.4 30.7,58.7 22.7,60.7 20.7,72.7 20.2,73.1 20.2,84.3 "/>
<polygon id="_Path_196" class="st0" points="108.2,50.6 108.2,50.7 108.1,50.6 60.7,44.7 30.7,58.7 108.7,50.7 "/>
<polygon id="_Path_197" class="st0" points="20.2,73.1 12.7,78.7 20.2,84.3 "/>
<polygon id="_Path_198" class="st0" points="20.7,84.7 51.1,72.9 50.7,72.7 30.7,58.7 20.3,84.4 "/>
<polygon id="_Path_199" class="st0" points="51.1,72.9 108.7,50.7 30.7,58.7 50.7,72.7 "/>
<polygon id="_Path_200" class="st0" points="150.2,386.7 150.2,378.7 140.2,384.7 "/>
<polygon id="_Path_201" class="st0" points="150.2,356.7 150.2,356.7 150.2,356.7 160.7,354.7 150,341.5 "/>
<polygon id="_Path_202" class="st0" points="140.7,455.2 170.2,455.2 170.2,455.1 120.7,445 "/>
<polyline id="_Path_203" class="st0" points="170.4,255.2 160.7,272.7 170.2,314.7 "/>
<polygon id="_Path_204" class="st0" points="150.7,341.2 150.2,341.2 140.7,341.2 140.3,341 140.2,341.2 140.2,340.9 136.6,348.8 
	150,341.5 160.7,354.7 170.2,350.7 162.5,348.7 "/>
<polygon id="_Path_205" class="st0" points="150.1,386.7 170.2,390.6 170.2,389.7 166.6,380.7 "/>
<polygon id="_Path_206" class="st0" points="150.2,356.7 150.7,356.7 170.2,360.7 160.7,354.7 "/>
<polyline id="_Path_207" class="st0" points="170.2,415.2 150.7,415.2 130.6,405.1 130.7,424.7 150.2,415.2 170.2,434.7 
	150.2,450.7 130.7,424.7 120.7,445 170.2,455.1 "/>
<polygon id="_Path_208" class="st0" points="150,315 170.2,314.7 150.7,294.7 "/>
<polygon id="_Path_209" class="st0" points="140.7,455.2 156.7,464.7 170.2,455.5 170.2,455.2 "/>
<polygon id="_Path_210" class="st0" points="160.5,273.2 160.7,272.7 160,273.2 "/>
<polygon id="_Path_211" class="st0" points="130.7,243.2 110.7,239 100.7,235.2 90.7,235.2 80.7,234.7 80.2,234.7 80.2,235.1 
	80.7,234.7 98.7,244.7 110.2,239.2 110.4,239 110.5,239.1 110.7,239 120.7,244.7 130.5,243.3 130.5,243.3 130.5,243.3 130.7,243.3 
	150.2,264.3 150.2,263.8 140.7,243.5 150.2,263.8 150.2,235.4 140.7,243.2 "/>
<polygon id="_Path_212" class="st0" points="130.5,243.3 132.4,254.6 132.7,254.7 150.2,264.7 150.2,264.3 130.7,243.3 "/>
<polygon id="_Path_213" class="st0" points="160,273.2 160.7,272.7 158.7,273.2 "/>
<polygon id="_Path_214" class="st0" points="134.7,272.7 120.7,273.2 100.7,273.2 76.7,265 100.2,282.3 100.2,273.7 127.9,280.8 
	128.7,280.7 128.9,280.6 134.7,273.2 158.7,273.2 160.7,272.7 150.2,264.7 142.7,269.2 "/>
<polygon id="_Path_215" class="st0" points="132.4,254.6 132.5,254.7 142.7,269.2 150.2,264.7 132.7,254.7 "/>
<polygon id="_Path_216" class="st0" points="10.6,231.1 6.7,246.7 14.7,242.7 "/>
<polygon id="_Path_217" class="st0" points="140.2,384.7 150.2,378.7 140.7,370.7 140.2,371.5 "/>
<polygon id="_Path_218" class="st0" points="160.5,74.7 170.2,54.8 170.2,54.7 150.4,44.7 "/>
<polyline id="_Path_219" class="st0" points="170.7,24.7 150.7,44.7 170.6,54.7 "/>
<polygon id="_Path_220" class="st0" points="140.7,392.7 150.2,386.7 140.2,384.7 "/>
<polyline id="_Path_221" class="st0" points="170.5,215.4 150.2,234.7 150.7,235 150.6,235.1 170.4,254.5 "/>
<polygon id="_Path_222" class="st0" points="140.2,371.5 140.7,370.7 140.2,370.7 "/>
<polygon id="_Path_223" class="st0" points="150.6,264.8 150.2,264.3 150.2,264.7 160.6,272.7 170.2,255.2 170.2,254.8 "/>
<polygon id="_Path_224" class="st0" points="150.2,235.4 150.2,263.8 150.6,264.8 170.2,254.8 170.2,254.5 150.4,235.1 "/>
<polygon id="_Path_225" class="st0" points="135.1,225 150.1,234.7 170.2,215.4 170.2,215.2 150.7,215.2 "/>
<polyline id="_Path_226" class="st0" points="170.6,104.7 120.7,110.7 100.7,114.7 80.7,124.7 60.7,144.7 60.4,145.2 70.7,145.2 
	80.7,125 94.7,128.7 110.6,124.8 120.6,110.8 140.5,117 170.2,105.2 "/>
<polyline id="_Path_227" class="st0" points="170.2,194.7 150.7,215.2 170.5,215.2 "/>
<polyline id="_Path_228" class="st0" points="170.2,105.2 140.5,117 170.2,154.7 "/>
<polygon id="_Path_229" class="st0" points="120.5,110.7 170.2,104.7 170.2,104.4 160.4,74.7 "/>
<polygon id="_Path_230" class="st0" points="160.7,273.2 160.5,273.2 150.7,294.7 170.2,314.7 160.7,272.7 160.5,273.2 "/>
<polygon id="_Path_231" class="st0" points="31.9,315.2 21.1,315.2 32.4,330.8 32.7,330.7 "/>
<polygon id="_Path_232" class="st0" points="21.1,315.2 31.9,315.2 31.8,313.7 14.7,284.7 20.7,314.7 "/>
<polygon id="_Path_233" class="st0" points="30.4,285.1 31.8,313.7 32.7,315.2 31.9,315.2 32.7,330.7 32.7,330.7 32.8,331.3 
	50.7,355.2 "/>
<polygon id="_Path_234" class="st0" points="14.7,284.7 12.2,308.7 12.2,324.7 20.7,314.7 "/>
<polyline id="_Path_235" class="st0" points="170.2,455.5 156.7,464.7 170.2,496.7 "/>
<polygon id="_Path_236" class="st0" points="32.7,315.2 31.8,313.7 31.9,315.2 "/>
<polygon id="_Path_237" class="st0" points="140.5,117 110.6,124.8 140.2,174.7 "/>
<polygon id="_Path_238" class="st0" points="170.2,154.7 140.5,117 140.2,174.7 "/>
<polygon id="_Path_239" class="st0" points="134.7,224.7 135.1,225 150.7,215.2 110.7,222.7 "/>
<polygon id="_Path_240" class="st0" points="30.4,285.1 14.7,284.7 31.8,313.7 "/>
<polygon id="_Path_241" class="st0" points="100.7,204.7 150.7,215.2 140.2,174.7 "/>
<polygon id="_Path_242" class="st0" points="150.7,215.2 170.2,194.7 140.2,174.7 "/>
<polygon id="_Path_243" class="st0" points="150.5,494.7 170.2,496.7 156.7,464.7 "/>
<polygon id="_Path_244" class="st0" points="20.7,315.2 21.1,315.2 20.7,314.7 20.4,334.7 32.4,330.8 21.1,315.2 "/>
<polygon id="_Path_245" class="st0" points="162.5,348.7 170.2,314.7 160.5,334.7 "/>
<polygon id="_Path_246" class="st0" points="150.7,341.2 162.5,348.7 160.5,334.7 150.2,341.2 "/>
<polyline id="_Path_247" class="st0" points="170.2,314.7 162.5,348.7 170.2,350.7 "/>
<path id="_Path_248" class="st0" d="M139.7,325.2l0.5-0.5L139.7,325.2z"/>
<polygon id="_Path_249" class="st0" points="160.5,334.7 150.2,324.7 150.2,341.2 "/>
<polygon id="_Path_250" class="st0" points="140.7,341.2 150.2,341.2 150.2,324.7 140.3,341 "/>
<polygon id="_Path_251" class="st0" points="139.7,325.2 130.7,335 140.2,340.9 140.2,325.2 "/>
<polygon id="_Path_252" class="st0" points="130.7,335 139.7,325.2 139.7,325.2 140.2,324.7 130.5,314.8 "/>
<polygon id="_Path_253" class="st0" points="140.2,325.2 149.7,325.2 140.2,325.2 140.2,340.9 140.3,341 150.2,324.7 150,315 
	140.2,324.7 "/>
<polygon id="_Path_254" class="st0" points="60.7,235.2 80.2,234.7 80.2,234.7 80.2,234.7 80.7,234.7 90.7,235.2 100.7,235.2 
	70.7,225 "/>
<polygon id="_Path_255" class="st0" points="110.7,239 130.7,243.2 140.7,243.2 130.7,234.7 100.7,235.2 "/>
<polygon id="_Path_256" class="st0" points="134.7,224.7 110.7,222.7 130.7,234.7 "/>
<polygon id="_Path_257" class="st0" points="130.7,234.7 140.7,243.2 150.2,235.4 150.2,235 "/>
<polygon id="_Path_258" class="st0" points="150.2,235 150.2,235.4 150.6,235.1 150.5,235 "/>
<polygon id="_Path_259" class="st0" points="150.6,235.1 150.7,235 150.5,235 "/>
<polygon id="_Path_260" class="st0" points="80.7,216.8 70.7,225 110.7,222.7 96.7,218.8 "/>
<polygon id="_Path_261" class="st0" points="150.5,235 150.7,235 150.2,234.7 150.2,234.7 "/>
<polygon id="_Path_262" class="st0" points="150.2,234.7 150.2,235 150.5,235 "/>
<polygon id="_Path_263" class="st0" points="130.7,234.7 150.2,235 150.2,234.7 150.2,234.7 135.1,225 134.7,225.2 135.1,225 
	134.7,224.7 "/>
<polygon id="_Path_264" class="st0" points="130.7,234.7 110.7,222.7 100.7,235.2 "/>
<polygon id="_Path_265" class="st0" points="114.7,263.2 120.7,268.7 122.7,264.7 "/>
<polygon id="_Path_266" class="st0" points="120.7,268.7 110.7,270.7 120.7,273.2 132.7,266.7 "/>
<polygon id="_Path_267" class="st0" points="110.7,270.7 120.7,268.7 114.7,263.2 "/>
<polygon id="_Path_268" class="st0" points="120.7,273.2 134.7,272.7 132.7,266.7 "/>
<polygon id="_Path_269" class="st0" points="120.7,268.7 132.7,266.7 120.7,255.2 122.7,264.7 "/>
<polygon id="_Path_270" class="st0" points="120.7,255.2 132.7,266.7 142.7,269.2 130.7,261.2 "/>
<polygon id="_Path_271" class="st0" points="122.7,264.7 120.7,255.2 114.7,263.2 "/>
<polygon id="_Path_272" class="st0" points="106.7,263.2 110.7,270.7 114.7,263.2 "/>
<polygon id="_Path_273" class="st0" points="100.2,255.7 90.7,264.7 102.7,268.7 100.2,264.7 "/>
<polygon id="_Path_274" class="st0" points="106.7,263.2 110.7,257.2 100.2,255.7 100.2,264.7 "/>
<polygon id="_Path_275" class="st0" points="102.7,268.7 110.7,270.7 106.7,263.2 "/>
<polygon id="_Path_276" class="st0" points="100.2,264.7 102.7,268.7 106.7,263.2 "/>
<polygon id="_Path_277" class="st0" points="134.7,272.7 142.7,269.2 132.7,266.7 "/>
<polygon id="_Path_278" class="st0" points="114.7,263.2 120.7,255.2 110.7,257.2 "/>
<polygon id="_Path_279" class="st0" points="102.7,268.7 100.7,273.2 110.7,270.7 "/>
<polygon id="_Path_280" class="st0" points="100.7,273.2 120.7,273.2 110.7,270.7 "/>
<polygon id="_Path_281" class="st0" points="90.7,264.7 100.7,273.2 102.7,268.7 "/>
<polygon id="_Path_282" class="st0" points="76.7,265 100.7,273.2 90.7,264.7 "/>
<polygon id="_Path_283" class="st0" points="100.2,255.7 110.7,257.2 120.7,255.2 100.7,255.2 76.7,265 90.7,264.7 "/>
<polygon id="_Path_284" class="st0" points="130.6,358.7 150.2,364.7 150.2,356.7 130.7,358.7 "/>
<polygon id="_Path_285" class="st0" points="130.7,370.7 130.6,371 131,371 "/>
<polygon id="_Path_286" class="st0" points="110.2,365.2 110.2,371.3 110.7,371.2 122.7,371.2 130.6,371 130.7,370.7 131,371 
	140.2,370.7 140.2,370.7 140.2,370.7 140.7,370.7 110.6,364.8 "/>
<polygon id="_Path_287" class="st0" points="110.2,365.2 110.6,364.8 110.6,364.8 "/>
<polygon id="_Path_288" class="st0" points="130.6,358.7 130.5,358.8 140.7,370.7 150.2,364.7 "/>
<polygon id="_Path_289" class="st0" points="110.8,364.7 110.6,364.8 140.7,370.7 130.5,358.8 "/>
<polygon id="_Path_290" class="st0" points="110.6,364.8 110.6,364.8 110.8,364.7 110.7,364.7 "/>
<polyline id="_Path_291" class="st0" points="170.2,360.7 150.7,356.7 150.2,356.7 170.2,374.7 "/>
<polygon id="_Path_292" class="st0" points="110.2,371.3 110.2,365.2 102.5,373.2 "/>
<polygon id="_Path_293" class="st0" points="150.2,356.7 150.2,364.7 170.2,374.7 "/>
<polygon id="_Path_294" class="st0" points="140.7,370.7 156.5,372.7 170.2,374.7 150.2,364.7 "/>
<polyline id="_Path_295" class="st0" points="170.2,394.7 160.7,396.7 170.2,415.2 "/>
<polygon id="_Path_296" class="st0" points="160.7,396.7 140.7,392.7 150.7,415.2 "/>
<polygon id="_Path_297" class="st0" points="130.6,405.1 140.7,392.7 122.7,384.7 "/>
<polygon id="_Path_298" class="st0" points="102.2,373.5 130.6,405.1 122.7,384.7 "/>
<polygon id="_Path_299" class="st0" points="150.7,415.2 140.7,392.7 130.6,405.1 "/>
<polygon id="_Path_300" class="st0" points="150.7,415.2 170.2,415.2 160.7,396.7 "/>
<polygon id="_Path_301" class="st0" points="114.7,263.2 110.7,257.2 106.7,263.2 "/>
<polygon id="_Path_302" class="st0" points="100.7,235.2 110.7,222.7 70.7,225 "/>
<polyline id="_Path_303" class="st0" points="170.3,390.7 140.7,392.7 170.2,394.7 "/>
<polygon id="_Path_304" class="st0" points="120.7,376.7 110.2,371.3 122.7,384.7 "/>
<polygon id="_Path_305" class="st0" points="29.7,227.2 29.9,227.2 30,227.2 30.2,226.7 30.4,226.3 20.7,214.7 18.6,234.7 
	29.9,227.2 "/>
<polygon id="_Path_306" class="st0" points="30.7,226.7 30.4,226.3 30.2,226.7 30.2,227 "/>
<polygon id="_Path_307" class="st0" points="30,227.2 30,227.2 30.2,227.2 30.2,227 "/>
<polygon id="_Path_308" class="st0" points="20.1,248.7 20.6,248.5 20.5,247.9 "/>
<polygon id="_Path_309" class="st0" points="30.2,227.2 30,227.2 20.5,247.9 20.6,248.5 30.2,244.7 "/>
<polygon id="_Path_310" class="st0" points="30.2,226.7 30,227.2 30.2,227 "/>
<polygon id="_Path_311" class="st0" points="20.7,104.7 20.9,105.2 21.2,105.2 "/>
<polygon id="_Path_312" class="st0" points="21.2,105.2 40.7,105.2 40.7,105.2 20.4,85.4 20.2,85.8 20.7,104.7 20.7,104.7 "/>
<polygon id="_Path_313" class="st0" points="20.7,104.7 20.7,105.2 20.9,105.2 "/>
<path id="_Path_314" class="st0" d="M20.7,104.7"/>
<polygon id="_Path_315" class="st0" points="20.2,85.2 20.2,85.8 20.4,85.4 "/>
<path id="_Path_316" class="st0" d="M170.7,24.7"/>
<polygon id="_Path_317" class="st0" points="150.5,44.7 170.2,24.7 170.2,24.7 136.3,14.7 "/>
<polygon id="_Path_318" class="st0" points="108.7,50.7 150.7,44.7 130.7,34.7 "/>
<polygon id="_Path_319" class="st0" points="50.2,314.7 70.2,344.7 70.2,284.7 "/>
<polygon id="_Path_320" class="st0" points="122.7,298.7 80.7,304.7 90.7,334.7 "/>
<path id="_Path_321" class="st0" d="M130.5,358.7L130.5,358.7z"/>
<path id="_Path_322" class="st0" d="M130.5,358.7L130.5,358.7z"/>
<polygon id="_Path_323" class="st0" points="97.3,357 100.7,355.2 96.6,354.5 "/>
<polygon id="_Path_324" class="st0" points="120.7,355.2 120.6,346.8 100.7,348.7 "/>
<polygon id="_Path_325" class="st0" points="100.7,355.2 120.7,355.2 100.7,348.7 "/>
<polygon id="_Path_326" class="st0" points="150,341.5 136.6,348.8 150.2,356.7 "/>
<polygon id="_Path_327" class="st0" points="86.7,352.7 84.4,362.7 90.2,360.7 "/>
<polygon id="_Path_328" class="st0" points="95.3,350.3 86.7,352.7 96.6,354.5 "/>
<polygon id="_Path_329" class="st0" points="90.2,360.7 84.4,362.7 90.2,374.7 "/>
<polygon id="_Path_330" class="st0" points="95.3,350.3 96.6,354.5 100.7,355.2 100.7,348.7 "/>
<polygon id="_Path_331" class="st0" points="130.5,358.7 130.5,358.7 136.6,348.8 120.6,346.8 "/>
<polygon id="_Path_332" class="st0" points="130.5,359.2 120.6,347 120.7,355.3 130.5,359.1 "/>
<polygon id="_Path_333" class="st0" points="96.6,354.5 86.7,352.7 90.2,360.7 97.3,357 "/>
<polygon id="_Path_334" class="st0" points="130.7,462.7 130.6,484.7 156.7,464.7 "/>
<polygon id="_Path_335" class="st0" points="110.7,444.7 100.7,454.7 130.7,462.7 "/>
<polygon id="_Path_336" class="st0" points="30.4,285.1 50.7,355.2 50.2,314.7 "/>
<polygon id="_Path_337" class="st0" points="170.2,434.7 150.2,415.2 150.2,450.7 "/>
<polyline id="_Path_338" class="st0" points="170.2,154.7 140.2,174.7 170.2,194.7 "/>
<polygon id="_Path_339" class="st0" points="110.7,222.7 150.7,215.2 100.7,204.7 "/>
<polygon id="_Path_340" class="st0" points="170.2,455.2 169.7,455.2 170.2,455.5 "/>
<polygon id="_Path_341" class="st0" points="170.1,390.6 170.1,389.7 169.7,390.7 "/>
<polyline id="_Path_342" class="st0" points="170.2,455.2 170.2,455.1 169.7,455.2 170.2,455.2 "/>
<polygon id="_Path_343" class="st0" points="170.1,390.6 169.7,390.7 170.1,390.7 "/>
<polygon id="_Path_344" class="st0" points="169.8,104.7 169.8,104.4 169.7,104.7 "/>
<polygon id="_Path_345" class="st0" points="169.9,215.4 169.9,215.2 169.7,215.2 "/>
<polygon id="_Path_346" class="st0" points="169.8,54.8 169.8,54.7 169.7,54.7 "/>
<polygon id="_Path_347" class="st0" points="170,254.8 170,254.5 169.7,254.7 "/>
<polygon id="_Path_348" class="st0" points="170,254.8 169.7,254.7 170,255.2 "/>
<path id="_Path_349" class="st0" d="M169.7,24.7"/>
<polygon id="_Path_350" class="st0" points="169.8,455.2 169.3,455.2 169.8,455.5 "/>
<polygon id="_Path_351" class="st0" points="269.3,414.8 269.2,415 269.8,415 "/>
<polygon id="_Path_352" class="st0" points="269.3,414.8 269.8,415 269.6,414.4 269.3,414.7 "/>
<polygon id="_Path_353" class="st0" points="169.7,390.6 169.7,389.7 169.3,390.7 "/>
<polygon id="_Path_354" class="st0" points="169.8,455.2 169.8,455.1 169.3,455.2 "/>
<polygon id="_Path_355" class="st0" points="269.6,414.4 269.8,415 270.2,413.8 "/>
<polygon id="_Path_356" class="st0" points="329.3,230.8 329.4,231.1 329.5,230.7 "/>
<polygon id="_Path_357" class="st0" points="329.3,230.8 329.5,230.7 329.3,230.4 329.3,230.7 "/>
<polygon id="_Path_358" class="st0" points="307.2,331.3 307.3,331.2 307.3,330.7 "/>
<polygon id="_Path_359" class="st0" points="307.3,330.7 307.3,331.2 307.6,330.8 "/>
<polygon id="_Path_360" class="st0" points="169.7,390.6 169.3,390.7 169.7,390.7 "/>
<polygon id="_Path_361" class="st0" points="169.4,104.7 169.4,104.4 169.3,104.7 "/>
<polygon id="_Path_362" class="st0" points="169.5,215.4 169.5,215.2 169.3,215.2 "/>
<polygon id="_Path_363" class="st0" points="169.4,54.8 169.4,54.7 169.3,54.7 "/>
<polygon id="_Path_364" class="st0" points="169.6,254.8 169.6,254.5 169.3,254.7 "/>
<polygon id="_Path_365" class="st0" points="169.6,254.8 169.3,254.7 169.6,255.2 "/>
<polygon id="_Path_366" class="st0" points="190,315 169.8,314.7 189.8,324.7 "/>
<polygon id="_Path_367" class="st0" points="189.8,324.7 169.8,314.7 179.5,334.7 "/>
<polygon id="_Path_368" class="st0" points="209.5,314.8 209.3,335 213.4,324.7 "/>
<polygon id="_Path_369" class="st0" points="200.3,325.2 199.8,324.7 199.8,325.2 "/>
<polygon id="_Path_370" class="st0" points="199.7,312.8 190,315 199.8,324.7 "/>
<polygon id="_Path_371" class="st0" points="209.5,358.7 209.4,358.7 209.5,358.8 "/>
<polygon id="_Path_372" class="st0" points="229.4,364.8 229.8,365.2 229.8,364.7 "/>
<path id="_Path_373" class="st0" d="M189.8,356.7"/>
<path id="_Path_374" class="st0" d="M189.8,356.7"/>
<polygon id="_Path_375" class="st0" points="199.8,340.9 199.7,341 199.8,341.2 "/>
<polygon id="_Path_376" class="st0" points="209.5,314.8 199.7,312.8 199.8,324.7 "/>
<polygon id="_Path_377" class="st0" points="219.3,255.2 239.4,251.2 239.3,251.2 219.8,251.2 "/>
<polygon id="_Path_378" class="st0" points="219.3,355.2 209.5,358.8 229.2,364.7 "/>
<polygon id="_Path_379" class="st0" points="211.3,281 212.1,280.8 211.3,280.7 211.1,280.6 "/>
<polygon id="_Path_380" class="st0" points="209.3,335 203.4,348.8 219.4,346.8 "/>
<polygon id="_Path_381" class="st0" points="219.3,355.2 229.2,364.7 229.3,364.7 229.4,364.8 229.8,364.7 239.3,355.2 "/>
<polygon id="_Path_382" class="st0" points="219.3,251.2 219.8,251.2 219.8,244.7 207.7,254.6 "/>
<polygon id="_Path_383" class="st0" points="239.3,255.2 259.8,255 259.7,254.9 259.3,255 239.4,251.2 "/>
<polygon id="_Path_384" class="st0" points="239.3,255.2 263.3,265 259.8,255 "/>
<polygon id="_Path_385" class="st0" points="239.4,251.2 239.4,251.2 219.3,255.2 239.3,255.2 "/>
<path id="_Path_386" class="st0" d="M239.4,251.2"/>
<polygon id="_Path_387" class="st0" points="259.5,255 259.8,254.9 241.7,244.7 239.8,251.2 239.8,251.2 "/>
<polygon id="_Path_388" class="st0" points="209.5,358.7 203.4,348.8 189.8,356.7 209.3,358.7 209.4,358.7 "/>
<polygon id="_Path_389" class="st0" points="239.3,282.7 239.8,282.3 239.8,273.7 212.1,280.8 "/>
<polygon id="_Path_390" class="st0" points="217.3,298.7 189.3,294.7 199.7,312.8 "/>
<polygon id="_Path_391" class="st0" points="219.3,255.2 207.5,254.7 197.3,269.2 209.3,261.2 "/>
<polygon id="_Path_392" class="st0" points="217.3,298.7 180,273.2 179.5,273.2 189.3,294.7 "/>
<polygon id="_Path_393" class="st0" points="239.3,282.7 212.1,280.8 211.3,281 211.1,280.6 181.3,273.2 180,273.2 217.3,298.7 "/>
<polygon id="_Path_394" class="st0" points="199.7,312.8 189.3,294.7 190,315 "/>
<polygon id="_Path_395" class="st0" points="209.3,335 199.8,340.9 203.4,348.8 "/>
<polygon id="_Path_396" class="st0" points="259.7,254.9 259.8,255 259.8,254.8 "/>
<polygon id="_Path_397" class="st0" points="279.8,250.7 263.3,265 239.8,282.3 239.8,282.7 269.8,284.7 "/>
<polygon id="_Path_398" class="st0" points="239.8,282.7 239.8,282.3 239.3,282.7 259.3,304.7 269.8,284.7 "/>
<polygon id="_Path_399" class="st0" points="259.8,254.8 259.8,235.1 259.3,234.7 241.3,244.7 229.8,239.2 239.4,251.2 241.5,244.7 
	259.7,254.9 "/>
<polygon id="_Path_400" class="st0" points="309.8,245 309.6,283.8 319.4,248.7 319.4,248.5 309.8,244.7 309.8,227.2 301.3,227.2 
	"/>
<polygon id="_Path_401" class="st0" points="319.5,247.9 319.9,248.7 325.3,242.7 321.4,234.7 "/>
<polygon id="_Path_402" class="st0" points="309.3,284.7 309.6,283.8 309.8,245 301.3,227.2 301.3,227 299.3,240.7 305.3,264.7 "/>
<polygon id="_Path_403" class="st0" points="309.6,226.3 319.3,214.7 289.8,184.7 "/>
<polygon id="_Path_404" class="st0" points="207.7,254.6 207.5,254.7 219.3,255.2 219.8,251.2 219.3,251.2 "/>
<polygon id="_Path_405" class="st0" points="309.6,226.3 289.8,184.7 301,226.1 301.3,226.7 301.3,227 301.3,227.2 309.8,227.2 
	309.8,227 309.3,226.7 "/>
<polygon id="_Path_406" class="st0" points="299.3,282.7 309.6,285.1 309.6,283.8 309.3,284.7 305.3,264.7 299.3,240.7 "/>
<polygon id="_Path_407" class="st0" points="301,226.1 289.8,184.7 293.6,210.7 "/>
<polygon id="_Path_408" class="st0" points="249.8,374.7 239.8,404.7 269.3,414.8 269.3,414.7 269.6,414.4 255.6,362.7 "/>
<polygon id="_Path_409" class="st0" points="289.8,314.7 309.6,285.1 299.3,282.7 "/>
<polygon id="_Path_410" class="st0" points="237.8,373.5 209.4,405.1 249.8,374.7 "/>
<polygon id="_Path_411" class="st0" points="249.8,374.7 209.4,405.1 239.8,404.7 "/>
<polygon id="_Path_412" class="st0" points="253.3,352.7 255.6,362.7 269.8,344.7 "/>
<polygon id="_Path_413" class="st0" points="269.8,344.7 289.3,355.2 289.8,314.7 "/>
<polygon id="_Path_414" class="st0" points="269.8,344.7 255.6,362.7 289.3,355.2 "/>
<polygon id="_Path_415" class="st0" points="319.5,247.9 321.4,234.7 310.1,227.2 310,227.2 "/>
<polygon id="_Path_416" class="st0" points="229.8,364.7 229.8,365.2 241,362.7 242.7,357 239.3,355.2 "/>
<polygon id="_Path_417" class="st0" points="279.3,250.7 259.8,235.1 259.8,254.8 "/>
<polygon id="_Path_418" class="st0" points="279.3,235.2 259.8,234.7 259.8,235.1 279.3,250.7 259.8,254.8 259.8,255 263.3,265 
	279.8,250.7 279.8,235.7 279.3,194.7 269.3,225 "/>
<polygon id="_Path_419" class="st0" points="219.8,251.2 229.5,239.1 229.3,239 219.3,244.7 209.5,243.3 207.6,254.6 207.7,254.6 
	219.8,244.7 "/>
<polygon id="_Path_420" class="st0" points="207.7,254.6 207.6,254.6 207.5,254.7 "/>
<polygon id="_Path_421" class="st0" points="229.8,239.2 229.5,239.1 219.8,251.2 239.3,251.2 239.4,251.2 "/>
<polygon id="_Path_422" class="st0" points="243.3,218.8 239.3,204.7 229.3,222.7 "/>
<polygon id="_Path_423" class="st0" points="279.3,194.7 239.3,204.7 259.3,216.8 "/>
<polygon id="_Path_424" class="st0" points="279.3,194.7 253.3,164.7 199.8,174.7 "/>
<polygon id="_Path_425" class="st0" points="279.3,194.7 279.8,165.2 253.3,164.7 "/>
<polygon id="_Path_426" class="st0" points="279.3,194.7 289.8,166.5 289.8,165.2 279.8,165.2 "/>
<polygon id="_Path_427" class="st0" points="259.3,216.8 239.3,204.7 243.3,218.8 "/>
<polygon id="_Path_428" class="st0" points="199.4,392.7 189.9,386.7 169.8,390.6 169.8,390.7 "/>
<polygon id="_Path_429" class="st0" points="293.6,210.7 289.8,184.7 289.8,166.5 279.3,194.7 "/>
<polygon id="_Path_430" class="st0" points="279.3,194.7 199.8,174.7 239.3,204.7 "/>
<polygon id="_Path_431" class="st0" points="203.3,376.7 199.8,384.7 207.3,388.7 "/>
<polygon id="_Path_432" class="st0" points="241,362.7 229.8,365.2 237.5,373.2 229.8,371.3 229.8,371.7 229.8,371.3 217.3,384.7 
	237.8,373.5 "/>
<polygon id="_Path_433" class="st0" points="335.8,178.7 333.3,202.7 339.5,188.7 "/>
<polygon id="_Path_434" class="st0" points="245.3,128.7 269.3,145.2 259.3,125 "/>
<polygon id="_Path_435" class="st0" points="181.3,273.2 211.1,280.6 205.3,273.2 "/>
<polygon id="_Path_436" class="st0" points="279.8,165.2 289.8,165.2 289.8,164.7 279.8,145.7 "/>
<polygon id="_Path_437" class="st0" points="229.5,239.1 229.8,239.2 229.6,239 "/>
<polygon id="_Path_438" class="st0" points="199.5,117 229.4,124.8 219.4,110.8 "/>
<polygon id="_Path_439" class="st0" points="219.3,376.7 217.3,371.2 211.3,378.7 217.3,384.7 "/>
<polygon id="_Path_440" class="st0" points="219.3,376.7 229.8,371.3 229.3,371.2 217.3,371.2 "/>
<polygon id="_Path_441" class="st0" points="211.3,378.7 217.3,371.2 209.4,371 "/>
<polygon id="_Path_442" class="st0" points="211.3,378.7 209.4,371 209,371 203.3,376.7 207.3,388.7 "/>
<polygon id="_Path_443" class="st0" points="203.3,376.7 199.8,371.5 199.8,384.7 "/>
<polygon id="_Path_444" class="st0" points="203.3,376.7 209,371 199.8,370.7 199.8,371.5 "/>
<polygon id="_Path_445" class="st0" points="249.3,94.7 319.3,84.7 288.9,72.9 "/>
<polygon id="_Path_446" class="st0" points="229.3,444.7 219.3,445 209.3,462.7 "/>
<polygon id="_Path_447" class="st0" points="173.4,380.7 189.8,378.7 183.9,372.7 "/>
<polygon id="_Path_448" class="st0" points="209.3,462.7 219.3,445 199.3,455.2 "/>
<polygon id="_Path_449" class="st0" points="239.8,424.7 219.3,445 229.3,444.7 "/>
<polygon id="_Path_450" class="st0" points="209.3,462.7 199.3,455.2 183.3,464.7 "/>
<polygon id="_Path_451" class="st0" points="179.3,396.7 199.3,392.7 169.8,394.7 "/>
<polygon id="_Path_452" class="st0" points="199.8,384.7 199.3,392.7 217.3,384.7 211.3,378.7 207.3,388.7 "/>
<polygon id="_Path_453" class="st0" points="189.8,264.3 189.8,263.8 189.3,264.8 "/>
<polygon id="_Path_454" class="st0" points="239.8,404.7 209.4,405.1 209.3,424.7 "/>
<polygon id="_Path_455" class="st0" points="239.8,404.7 209.3,424.7 219.3,445 "/>
<polygon id="_Path_456" class="st0" points="289.8,165.2 289.8,166.5 290.3,165.2 "/>
<polygon id="_Path_457" class="st0" points="249.3,94.7 288.9,72.9 231.3,50.7 "/>
<polygon id="_Path_458" class="st0" points="239.8,404.7 219.3,445 239.8,424.7 "/>
<polygon id="_Path_459" class="st0" points="239.8,404.7 239.8,424.7 245.3,416.7 "/>
<polygon id="_Path_460" class="st0" points="249.8,360.7 237.8,373.5 249.8,374.7 "/>
<polygon id="_Path_461" class="st0" points="213.4,324.7 209.3,335 219.4,346.8 213.9,324.7 229.4,320.8 229.3,320.7 209.5,314.8 
	"/>
<polygon id="_Path_462" class="st0" points="229.8,320.7 217.3,298.7 209.5,314.8 229.3,320.7 229.4,320.8 "/>
<polygon id="_Path_463" class="st0" points="209.5,314.8 217.3,298.7 199.7,312.8 "/>
<polygon id="_Path_464" class="st0" points="213.9,324.7 219.4,346.8 229.8,334.7 "/>
<polygon id="_Path_465" class="st0" points="241.3,338.7 246.4,344.6 249.3,334.7 229.8,320.7 229.8,321.5 "/>
<polygon id="_Path_466" class="st0" points="239.3,348.7 244.7,350.3 246.4,344.6 241.3,338.7 "/>
<polygon id="_Path_467" class="st0" points="229.8,334.7 219.4,346.8 239.3,348.7 241.3,338.7 "/>
<polygon id="_Path_468" class="st0" points="241,362.7 237.8,373.5 249.8,360.7 "/>
<polygon id="_Path_469" class="st0" points="241,362.7 249.8,360.7 242.7,357 "/>
<polygon id="_Path_470" class="st0" points="229.8,321.5 229.8,320.7 229.4,320.8 "/>
<polygon id="_Path_471" class="st0" points="244.7,350.3 253.3,352.7 246.4,344.6 "/>
<polygon id="_Path_472" class="st0" points="249.3,334.7 253.3,352.7 269.8,344.7 259.3,304.7 "/>
<polygon id="_Path_473" class="st0" points="246.4,344.6 253.3,352.7 249.3,334.7 "/>
<polygon id="_Path_474" class="st0" points="249.3,334.7 217.3,298.7 229.8,320.7 "/>
<polygon id="_Path_475" class="st0" points="269.3,225 279.3,194.7 259.3,216.8 "/>
<polygon id="_Path_476" class="st0" points="279.8,235.7 293.6,210.7 279.3,194.7 "/>
<polygon id="_Path_477" class="st0" points="310,227.2 310,227.2 310.1,227.2 "/>
<polygon id="_Path_478" class="st0" points="229.8,321.5 229.4,320.8 213.9,324.7 229.8,334.7 "/>
<polygon id="_Path_479" class="st0" points="293.6,210.7 299.3,240.7 301.3,227 301,226.1 "/>
<polygon id="_Path_480" class="st0" points="279.8,250.7 299.3,240.7 279.8,235.7 "/>
<polygon id="_Path_481" class="st0" points="301,226.1 301.3,227 301.3,226.7 "/>
<polygon id="_Path_482" class="st0" points="279.8,235.7 299.3,240.7 293.6,210.7 "/>
<polygon id="_Path_483" class="st0" points="217.3,298.7 259.3,304.7 239.3,282.7 "/>
<polygon id="_Path_484" class="st0" points="269.8,284.7 299.3,240.7 279.8,250.7 "/>
<polygon id="_Path_485" class="st0" points="259.3,304.7 269.8,344.7 269.8,284.7 "/>
<polygon id="_Path_486" class="st0" points="229.8,321.5 229.8,334.7 241.3,338.7 "/>
<polygon id="_Path_487" class="st0" points="269.8,284.7 289.8,314.7 299.3,282.7 "/>
<polygon id="_Path_488" class="st0" points="269.8,284.7 299.3,282.7 299.3,240.7 "/>
<polygon id="_Path_489" class="st0" points="189.8,450.7 209.3,424.7 189.8,415.2 "/>
<polygon id="_Path_490" class="st0" points="249.3,94.7 219.3,110.7 239.3,114.7 "/>
<polygon id="_Path_491" class="st0" points="231.9,50.6 231.8,50.6 231.8,50.7 "/>
<polygon id="_Path_492" class="st0" points="229.3,444.7 239.3,454.7 249.3,444.7 259.3,434.7 "/>
<polygon id="_Path_493" class="st0" points="231.3,50.7 189.3,44.7 179.3,74.7 "/>
<polygon id="_Path_494" class="st0" points="209.3,462.7 209.4,484.7 219.4,474.7 239.3,454.7 "/>
<polygon id="_Path_495" class="st0" points="249.3,94.7 179.3,74.7 219.3,110.7 249.3,94.7 299.3,105.2 319.6,85.4 319.3,84.7 "/>
<polygon id="_Path_496" class="st0" points="231.3,50.7 179.3,74.7 249.3,94.7 "/>
<polygon id="_Path_497" class="st0" points="319.9,248.7 327.3,260.7 325.3,242.7 "/>
<path id="_Path_498" class="st0" d="M169.3,4.7"/>
<polyline id="_Path_499" class="st0" points="169.3,24.7 203.3,14.7 169.3,4.7 "/>
<polyline id="_Path_500" class="st0" points="169.3,4.7 203.3,14.7 201.3,0.7 169.3,4.7 "/>
<polygon id="_Path_501" class="st0" points="203.3,14.7 219.3,6.7 201.3,0.7 "/>
<polygon id="_Path_502" class="st0" points="229.3,444.7 259.3,434.7 239.8,424.7 "/>
<polygon id="_Path_503" class="st0" points="239.8,424.7 259.3,434.7 245.3,416.7 "/>
<polygon id="_Path_504" class="st0" points="203.3,14.7 189.3,44.7 209.3,34.7 "/>
<polygon id="_Path_505" class="st0" points="249.3,144.7 245.3,128.7 229.4,124.8 253.3,164.7 "/>
<polygon id="_Path_506" class="st0" points="253.3,164.7 229.4,124.8 199.8,174.7 "/>
<polygon id="_Path_507" class="st0" points="203.3,14.7 231.3,24.7 219.3,6.7 "/>
<polygon id="_Path_508" class="st0" points="249.3,94.7 239.3,114.7 259.3,124.7 "/>
<polygon id="_Path_509" class="st0" points="253.3,164.7 269.3,145.2 245.3,128.7 249.3,144.7 "/>
<polygon id="_Path_510" class="st0" points="309.6,285.1 327.3,260.7 319.9,248.7 319.4,248.5 319.4,248.7 309.6,283.8 "/>
<polygon id="_Path_511" class="st0" points="183.3,464.7 189.5,494.7 209.4,484.7 "/>
<polygon id="_Path_512" class="st0" points="319.3,314.7 319.6,334.7 327.8,324.7 "/>
<polygon id="_Path_513" class="st0" points="279.8,165.2 269.3,145.2 253.3,164.7 "/>
<polygon id="_Path_514" class="st0" points="299.3,105.2 259.3,124.7 279.3,144.7 "/>
<polygon id="_Path_515" class="st0" points="279.3,144.7 318.8,105.2 299.3,105.2 "/>
<polygon id="_Path_516" class="st0" points="249.3,94.7 259.3,124.7 299.3,105.2 "/>
<polygon id="_Path_517" class="st0" points="318.8,105.2 279.3,144.7 279.6,145.2 279.8,145.2 279.8,145.7 289.8,164.7 319.1,105.2 
	"/>
<polygon id="_Path_518" class="st0" points="279.8,145.2 279.6,145.2 279.8,145.7 "/>
<polygon id="_Path_519" class="st0" points="279.8,145.7 279.6,145.2 269.3,145.2 279.8,165.2 "/>
<polygon id="_Path_520" class="st0" points="279.3,44.7 267.3,22.7 231.9,50.6 "/>
<polygon id="_Path_521" class="st0" points="289.8,164.7 335.8,154.7 319.3,104.7 319.3,105.2 319.1,105.2 "/>
<polygon id="_Path_522" class="st0" points="289.3,355.2 289.3,394.7 303.1,355.2 "/>
<polygon id="_Path_523" class="st0" points="289.8,184.7 335.8,154.7 289.8,164.7 289.8,165.2 290.3,165.2 289.8,166.5 "/>
<polygon id="_Path_524" class="st0" points="335.8,154.7 331.3,132.7 325.3,98.7 319.3,104.7 "/>
<polygon id="_Path_525" class="st0" points="319.3,104.7 325.3,98.7 319.8,85.8 "/>
<polygon id="_Path_526" class="st0" points="245.3,416.7 259.3,434.7 269.2,415 "/>
<polygon id="_Path_527" class="st0" points="319.8,85.8 325.3,98.7 327.3,78.7 319.8,84.3 319.8,84.7 319.7,84.4 319.3,84.7 
	319.6,85.4 319.8,85.2 "/>
<polygon id="_Path_528" class="st0" points="329.3,230.7 329.3,230.4 319.3,214.7 321.4,234.7 329.3,230.8 "/>
<polygon id="_Path_529" class="st0" points="325.3,242.7 327.3,260.7 333.3,246.7 "/>
<polygon id="_Path_530" class="st0" points="325.3,242.7 329.4,231.1 329.3,230.8 321.4,234.7 "/>
<polygon id="_Path_531" class="st0" points="289.3,355.2 303.1,355.2 303.3,354.7 307.2,331.3 "/>
<polygon id="_Path_532" class="st0" points="319.3,214.7 329.3,230.4 333.3,202.7 "/>
<polygon id="_Path_533" class="st0" points="319.3,214.7 333.3,202.7 335.8,178.7 335.8,154.7 "/>
<polygon id="_Path_534" class="st0" points="319.3,214.7 335.8,154.7 289.8,184.7 "/>
<polygon id="_Path_535" class="st0" points="289.3,355.2 270.2,413.8 289.3,394.7 "/>
<polygon id="_Path_536" class="st0" points="309.6,285.1 325.3,284.7 327.3,260.7 "/>
<polygon id="_Path_537" class="st0" points="245.3,416.7 269.2,415 269.3,414.8 239.8,404.7 "/>
<polygon id="_Path_538" class="st0" points="279.3,44.7 291.3,34.7 267.3,22.7 "/>
<polygon id="_Path_539" class="st0" points="279.3,44.7 309.3,58.7 291.3,34.7 "/>
<polygon id="_Path_540" class="st0" points="269.6,414.4 270.2,413.8 289.3,355.2 255.6,362.7 "/>
<polygon id="_Path_541" class="st0" points="209.3,34.7 231.3,24.7 203.3,14.7 "/>
<polygon id="_Path_542" class="st0" points="231.9,50.6 267.3,22.7 231.3,24.7 209.3,34.7 231.3,50.7 231.8,50.6 231.8,24.7 
	231.8,50.6 "/>
<polygon id="_Path_543" class="st0" points="319.8,84.3 319.7,84.4 319.8,84.7 "/>
<polygon id="_Path_544" class="st0" points="319.8,84.3 319.8,73.1 319.3,72.7 317.3,60.7 309.3,58.7 319.7,84.4 "/>
<polygon id="_Path_545" class="st0" points="231.3,50.7 309.3,58.7 279.3,44.7 231.9,50.6 231.8,50.7 231.8,50.6 "/>
<polygon id="_Path_546" class="st0" points="319.8,84.3 327.3,78.7 319.8,73.1 "/>
<polygon id="_Path_547" class="st0" points="319.7,84.4 309.3,58.7 289.3,72.7 288.9,72.9 319.3,84.7 "/>
<polygon id="_Path_548" class="st0" points="289.3,72.7 309.3,58.7 231.3,50.7 288.9,72.9 "/>
<polygon id="_Path_549" class="st0" points="199.8,384.7 189.8,378.7 189.8,386.7 "/>
<polygon id="_Path_550" class="st0" points="190,341.5 179.3,354.7 189.8,356.7 189.8,356.7 189.8,356.7 "/>
<polygon id="_Path_551" class="st0" points="219.3,445 169.8,455.1 169.8,455.2 199.3,455.2 "/>
<polyline id="_Path_552" class="st0" points="169.8,314.7 179.3,272.7 169.6,255.2 "/>
<polygon id="_Path_553" class="st0" points="177.5,348.7 169.8,350.7 179.3,354.7 190,341.5 203.4,348.8 199.8,340.9 199.8,341.2 
	199.7,341 199.3,341.2 189.8,341.2 189.3,341.2 "/>
<polygon id="_Path_554" class="st0" points="173.4,380.7 169.8,389.7 169.8,390.6 189.9,386.7 "/>
<polygon id="_Path_555" class="st0" points="179.3,354.7 169.8,360.7 189.3,356.7 189.8,356.7 "/>
<polyline id="_Path_556" class="st0" points="169.8,455.1 219.3,445 209.3,424.7 189.8,450.7 169.8,434.7 189.8,415.2 209.3,424.7 
	209.4,405.1 189.3,415.2 169.8,415.2 "/>
<polygon id="_Path_557" class="st0" points="189.3,294.7 169.8,314.7 190,315 "/>
<polygon id="_Path_558" class="st0" points="169.8,455.2 169.8,455.5 183.3,464.7 199.3,455.2 "/>
<polygon id="_Path_559" class="st0" points="180,273.2 179.3,272.7 179.5,273.2 "/>
<polygon id="_Path_560" class="st0" points="199.3,243.2 189.8,235.4 189.8,263.8 199.3,243.5 189.8,263.8 189.8,264.3 209.3,243.3 
	209.5,243.3 209.5,243.3 209.5,243.3 219.3,244.7 229.3,239 229.5,239.1 229.6,239 229.8,239.2 241.3,244.7 259.3,234.7 
	259.8,235.1 259.8,234.7 259.3,234.7 249.3,235.2 239.3,235.2 229.3,239 209.3,243.2 "/>
<polygon id="_Path_561" class="st0" points="209.3,243.3 189.8,264.3 189.8,264.7 207.3,254.7 207.6,254.6 209.5,243.3 "/>
<polygon id="_Path_562" class="st0" points="181.3,273.2 179.3,272.7 180,273.2 "/>
<polygon id="_Path_563" class="st0" points="197.3,269.2 189.8,264.7 179.3,272.7 181.3,273.2 205.3,273.2 211.1,280.6 211.3,280.7 
	212.1,280.8 239.8,273.7 239.8,282.3 263.3,265 239.3,273.2 219.3,273.2 205.3,272.7 "/>
<polygon id="_Path_564" class="st0" points="207.3,254.7 189.8,264.7 197.3,269.2 207.5,254.7 207.6,254.6 "/>
<polygon id="_Path_565" class="st0" points="325.3,242.7 333.3,246.7 329.4,231.1 "/>
<polygon id="_Path_566" class="st0" points="199.8,371.5 199.3,370.7 189.8,378.7 199.8,384.7 "/>
<polygon id="_Path_567" class="st0" points="189.6,44.7 169.8,54.7 169.8,54.8 179.5,74.7 "/>
<polyline id="_Path_568" class="st0" points="169.4,54.7 189.3,44.7 169.3,24.7 "/>
<polygon id="_Path_569" class="st0" points="199.8,384.7 189.8,386.7 199.3,392.7 "/>
<polyline id="_Path_570" class="st0" points="169.6,254.5 189.4,235.1 189.3,235 189.8,234.7 169.5,215.4 "/>
<polygon id="_Path_571" class="st0" points="199.8,370.7 199.3,370.7 199.8,371.5 "/>
<polygon id="_Path_572" class="st0" points="169.8,254.8 169.8,255.2 179.4,272.7 189.8,264.7 189.8,264.3 189.4,264.8 "/>
<polygon id="_Path_573" class="st0" points="189.6,235.1 169.8,254.5 169.8,254.8 189.4,264.8 189.8,263.8 189.8,235.4 "/>
<polygon id="_Path_574" class="st0" points="189.3,215.2 169.8,215.2 169.8,215.4 189.9,234.7 204.9,225 "/>
<polyline id="_Path_575" class="st0" points="169.8,105.2 199.5,117 219.4,110.8 229.4,124.8 245.3,128.7 259.3,125 269.3,145.2 
	279.6,145.2 279.3,144.7 259.3,124.7 239.3,114.7 219.3,110.7 169.4,104.7 "/>
<polyline id="_Path_576" class="st0" points="169.5,215.2 189.3,215.2 169.8,194.7 "/>
<polyline id="_Path_577" class="st0" points="169.8,154.7 199.5,117 169.8,105.2 "/>
<polygon id="_Path_578" class="st0" points="179.6,74.7 169.8,104.4 169.8,104.7 219.5,110.7 "/>
<polygon id="_Path_579" class="st0" points="179.5,273.2 179.3,272.7 169.8,314.7 189.3,294.7 179.5,273.2 179.3,273.2 "/>
<polygon id="_Path_580" class="st0" points="307.3,330.7 307.6,330.8 318.9,315.2 308.1,315.2 "/>
<polygon id="_Path_581" class="st0" points="319.3,314.7 325.3,284.7 308.2,313.7 308.1,315.2 318.9,315.2 "/>
<polygon id="_Path_582" class="st0" points="289.3,355.2 307.2,331.3 307.3,330.7 307.3,330.7 308.1,315.2 307.3,315.2 308.2,313.7 
	309.6,285.1 "/>
<polygon id="_Path_583" class="st0" points="319.3,314.7 327.8,324.7 327.8,308.7 325.3,284.7 "/>
<polyline id="_Path_584" class="st0" points="169.8,496.7 183.3,464.7 169.8,455.5 "/>
<polygon id="_Path_585" class="st0" points="308.1,315.2 308.2,313.7 307.3,315.2 "/>
<polygon id="_Path_586" class="st0" points="199.8,174.7 229.4,124.8 199.5,117 "/>
<polygon id="_Path_587" class="st0" points="199.8,174.7 199.5,117 169.8,154.7 "/>
<polygon id="_Path_588" class="st0" points="229.3,222.7 189.3,215.2 204.9,225 205.3,224.7 "/>
<polygon id="_Path_589" class="st0" points="308.2,313.7 325.3,284.7 309.6,285.1 "/>
<polygon id="_Path_590" class="st0" points="199.8,174.7 189.3,215.2 239.3,204.7 "/>
<polygon id="_Path_591" class="st0" points="199.8,174.7 169.8,194.7 189.3,215.2 "/>
<polygon id="_Path_592" class="st0" points="183.3,464.7 169.8,496.7 189.5,494.7 "/>
<polygon id="_Path_593" class="st0" points="318.9,315.2 307.6,330.8 319.6,334.7 319.3,314.7 318.9,315.2 319.3,315.2 "/>
<polygon id="_Path_594" class="st0" points="179.5,334.7 169.8,314.7 177.5,348.7 "/>
<polygon id="_Path_595" class="st0" points="189.8,341.2 179.5,334.7 177.5,348.7 189.3,341.2 "/>
<polyline id="_Path_596" class="st0" points="169.8,350.7 177.5,348.7 169.8,314.7 "/>
<path id="_Path_597" class="st0" d="M199.8,324.7l0.5,0.5L199.8,324.7z"/>
<polygon id="_Path_598" class="st0" points="189.8,341.2 189.8,324.7 179.5,334.7 "/>
<polygon id="_Path_599" class="st0" points="199.7,341 189.8,324.7 189.8,341.2 199.3,341.2 "/>
<polygon id="_Path_600" class="st0" points="199.8,325.2 199.8,340.9 209.3,335 200.3,325.2 "/>
<polygon id="_Path_601" class="st0" points="209.5,314.8 199.8,324.7 200.3,325.2 200.3,325.2 209.3,335 "/>
<polygon id="_Path_602" class="st0" points="199.8,324.7 190,315 189.8,324.7 199.7,341 199.8,340.9 199.8,325.2 190.3,325.2 
	199.8,325.2 "/>
<polygon id="_Path_603" class="st0" points="269.3,225 239.3,235.2 249.3,235.2 259.3,234.7 259.8,234.7 259.8,234.7 259.8,234.7 
	279.3,235.2 "/>
<polygon id="_Path_604" class="st0" points="239.3,235.2 209.3,234.7 199.3,243.2 209.3,243.2 229.3,239 "/>
<polygon id="_Path_605" class="st0" points="209.3,234.7 229.3,222.7 205.3,224.7 "/>
<polygon id="_Path_606" class="st0" points="189.8,235 189.8,235.4 199.3,243.2 209.3,234.7 "/>
<polygon id="_Path_607" class="st0" points="189.5,235 189.4,235.1 189.8,235.4 189.8,235 "/>
<polygon id="_Path_608" class="st0" points="189.5,235 189.3,235 189.4,235.1 "/>
<polygon id="_Path_609" class="st0" points="243.3,218.8 229.3,222.7 269.3,225 259.3,216.8 "/>
<polygon id="_Path_610" class="st0" points="189.8,234.7 189.8,234.7 189.3,235 189.5,235 "/>
<polygon id="_Path_611" class="st0" points="189.5,235 189.8,235 189.8,234.7 "/>
<polygon id="_Path_612" class="st0" points="205.3,224.7 204.9,225 205.3,225.2 204.9,225 189.8,234.7 189.8,234.7 189.8,235 
	209.3,234.7 "/>
<polygon id="_Path_613" class="st0" points="239.3,235.2 229.3,222.7 209.3,234.7 "/>
<polygon id="_Path_614" class="st0" points="217.3,264.7 219.3,268.7 225.3,263.2 "/>
<polygon id="_Path_615" class="st0" points="207.3,266.7 219.3,273.2 229.3,270.7 219.3,268.7 "/>
<polygon id="_Path_616" class="st0" points="225.3,263.2 219.3,268.7 229.3,270.7 "/>
<polygon id="_Path_617" class="st0" points="207.3,266.7 205.3,272.7 219.3,273.2 "/>
<polygon id="_Path_618" class="st0" points="217.3,264.7 219.3,255.2 207.3,266.7 219.3,268.7 "/>
<polygon id="_Path_619" class="st0" points="209.3,261.2 197.3,269.2 207.3,266.7 219.3,255.2 "/>
<polygon id="_Path_620" class="st0" points="225.3,263.2 219.3,255.2 217.3,264.7 "/>
<polygon id="_Path_621" class="st0" points="225.3,263.2 229.3,270.7 233.3,263.2 "/>
<polygon id="_Path_622" class="st0" points="239.8,264.7 237.3,268.7 249.3,264.7 239.8,255.7 "/>
<polygon id="_Path_623" class="st0" points="239.8,264.7 239.8,255.7 229.3,257.2 233.3,263.2 "/>
<polygon id="_Path_624" class="st0" points="233.3,263.2 229.3,270.7 237.3,268.7 "/>
<polygon id="_Path_625" class="st0" points="233.3,263.2 237.3,268.7 239.8,264.7 "/>
<polygon id="_Path_626" class="st0" points="207.3,266.7 197.3,269.2 205.3,272.7 "/>
<polygon id="_Path_627" class="st0" points="229.3,257.2 219.3,255.2 225.3,263.2 "/>
<polygon id="_Path_628" class="st0" points="229.3,270.7 239.3,273.2 237.3,268.7 "/>
<polygon id="_Path_629" class="st0" points="229.3,270.7 219.3,273.2 239.3,273.2 "/>
<polygon id="_Path_630" class="st0" points="237.3,268.7 239.3,273.2 249.3,264.7 "/>
<polygon id="_Path_631" class="st0" points="249.3,264.7 239.3,273.2 263.3,265 "/>
<polygon id="_Path_632" class="st0" points="249.3,264.7 263.3,265 239.3,255.2 219.3,255.2 229.3,257.2 239.8,255.7 "/>
<polygon id="_Path_633" class="st0" points="209.3,358.7 189.8,356.7 189.8,364.7 209.4,358.7 "/>
<polygon id="_Path_634" class="st0" points="209,371 209.4,371 209.3,370.7 "/>
<polygon id="_Path_635" class="st0" points="229.4,364.8 199.3,370.7 199.8,370.7 199.8,370.7 199.8,370.7 209,371 209.3,370.7 
	209.4,371 217.3,371.2 229.3,371.2 229.8,371.3 229.8,365.2 "/>
<polygon id="_Path_636" class="st0" points="229.4,364.8 229.4,364.8 229.8,365.2 "/>
<polygon id="_Path_637" class="st0" points="189.8,364.7 199.3,370.7 209.5,358.8 209.4,358.7 "/>
<polygon id="_Path_638" class="st0" points="209.5,358.8 199.3,370.7 229.4,364.8 229.2,364.7 "/>
<polygon id="_Path_639" class="st0" points="229.3,364.7 229.2,364.7 229.4,364.8 229.4,364.8 "/>
<polyline id="_Path_640" class="st0" points="169.8,374.7 189.8,356.7 189.3,356.7 169.8,360.7 "/>
<polygon id="_Path_641" class="st0" points="237.5,373.2 229.8,365.2 229.8,371.3 "/>
<polygon id="_Path_642" class="st0" points="169.8,374.7 189.8,364.7 189.8,356.7 "/>
<polygon id="_Path_643" class="st0" points="189.8,364.7 169.8,374.7 183.5,372.7 199.3,370.7 "/>
<polyline id="_Path_644" class="st0" points="169.8,415.2 179.3,396.7 169.8,394.7 "/>
<polygon id="_Path_645" class="st0" points="189.3,415.2 199.3,392.7 179.3,396.7 "/>
<polygon id="_Path_646" class="st0" points="217.3,384.7 199.3,392.7 209.4,405.1 "/>
<polygon id="_Path_647" class="st0" points="217.3,384.7 209.4,405.1 237.8,373.5 "/>
<polygon id="_Path_648" class="st0" points="209.4,405.1 199.3,392.7 189.3,415.2 "/>
<polygon id="_Path_649" class="st0" points="179.3,396.7 169.8,415.2 189.3,415.2 "/>
<polygon id="_Path_650" class="st0" points="233.3,263.2 229.3,257.2 225.3,263.2 "/>
<polygon id="_Path_651" class="st0" points="269.3,225 229.3,222.7 239.3,235.2 "/>
<polyline id="_Path_652" class="st0" points="169.8,394.7 199.3,392.7 169.7,390.7 "/>
<polygon id="_Path_653" class="st0" points="217.3,384.7 229.8,371.3 219.3,376.7 "/>
<polygon id="_Path_654" class="st0" points="310.1,227.2 321.4,234.7 319.3,214.7 309.6,226.3 309.8,226.7 310,227.2 310.1,227.2 
	310.3,227.2 "/>
<polygon id="_Path_655" class="st0" points="309.8,227 309.8,226.7 309.6,226.3 309.3,226.7 "/>
<polygon id="_Path_656" class="st0" points="309.8,227 309.8,227.2 310,227.2 310,227.2 "/>
<polygon id="_Path_657" class="st0" points="319.5,247.9 319.4,248.5 319.9,248.7 "/>
<polygon id="_Path_658" class="st0" points="309.8,244.7 319.4,248.5 319.5,247.9 310,227.2 309.8,227.2 "/>
<polygon id="_Path_659" class="st0" points="309.8,227 310,227.2 309.8,226.7 "/>
<polygon id="_Path_660" class="st0" points="318.8,105.2 319.1,105.2 319.3,104.7 "/>
<polygon id="_Path_661" class="st0" points="319.3,104.7 319.3,104.7 319.8,85.8 319.6,85.4 299.3,105.2 299.3,105.2 318.8,105.2 
	"/>
<polygon id="_Path_662" class="st0" points="319.1,105.2 319.3,105.2 319.3,104.7 "/>
<path id="_Path_663" class="st0" d="M319.3,104.7"/>
<polygon id="_Path_664" class="st0" points="319.6,85.4 319.8,85.8 319.8,85.2 "/>
<path id="_Path_665" class="st0" d="M169.3,24.7"/>
<polygon id="_Path_666" class="st0" points="203.7,14.7 169.8,24.7 169.8,24.7 189.5,44.7 "/>
<polygon id="_Path_667" class="st0" points="209.3,34.7 189.3,44.7 231.3,50.7 "/>
<polygon id="_Path_668" class="st0" points="269.8,284.7 269.8,344.7 289.8,314.7 "/>
<polygon id="_Path_669" class="st0" points="249.3,334.7 259.3,304.7 217.3,298.7 "/>
<path id="_Path_670" class="st0" d="M209.5,358.8L209.5,358.8z"/>
<path id="_Path_671" class="st0" d="M209.5,358.8L209.5,358.8z"/>
<polygon id="_Path_672" class="st0" points="243.4,354.5 239.3,355.2 242.7,357 "/>
<polygon id="_Path_673" class="st0" points="239.3,348.7 219.4,346.8 219.3,355.2 "/>
<polygon id="_Path_674" class="st0" points="239.3,348.7 219.3,355.2 239.3,355.2 "/>
<polygon id="_Path_675" class="st0" points="189.8,356.7 203.4,348.8 190,341.5 "/>
<polygon id="_Path_676" class="st0" points="249.8,360.7 255.6,362.7 253.3,352.7 "/>
<polygon id="_Path_677" class="st0" points="243.4,354.5 253.3,352.7 244.7,350.3 "/>
<polygon id="_Path_678" class="st0" points="249.8,374.7 255.6,362.7 249.8,360.7 "/>
<polygon id="_Path_679" class="st0" points="239.3,348.7 239.3,355.2 243.4,354.5 244.7,350.3 "/>
<polygon id="_Path_680" class="st0" points="219.4,346.8 203.4,348.8 209.5,358.7 209.5,358.7 "/>
<polygon id="_Path_681" class="st0" points="209.5,359.1 219.3,355.3 219.4,347 209.5,359.2 "/>
<polygon id="_Path_682" class="st0" points="242.7,357 249.8,360.7 253.3,352.7 243.4,354.5 "/>
<polygon id="_Path_683" class="st0" points="183.3,464.7 209.4,484.7 209.3,462.7 "/>
<polygon id="_Path_684" class="st0" points="209.3,462.7 239.3,454.7 229.3,444.7 "/>
<polygon id="_Path_685" class="st0" points="289.8,314.7 289.3,355.2 309.6,285.1 "/>
<polygon id="_Path_686" class="st0" points="189.8,450.7 189.8,415.2 169.8,434.7 "/>
<polyline id="_Path_687" class="st0" points="169.8,194.7 199.8,174.7 169.8,154.7 "/>
<polygon id="_Path_688" class="st0" points="239.3,204.7 189.3,215.2 229.3,222.7 "/>
<polygon id="_Path_689" class="st0" points="169.8,455.5 170.3,455.2 169.8,455.2 "/>
<polygon id="_Path_690" class="st0" points="170.3,390.7 169.9,389.7 169.9,390.6 "/>
<polyline id="_Path_691" class="st0" points="169.8,455.2 170.3,455.2 169.8,455.1 169.8,455.2 "/>
<polygon id="_Path_692" class="st0" points="169.9,390.7 170.3,390.7 169.9,390.6 "/>
<polygon id="_Path_693" class="st0" points="170.3,104.7 170.2,104.4 170.2,104.7 "/>
<polygon id="_Path_694" class="st0" points="170.3,215.2 170.1,215.2 170.1,215.4 "/>
<polygon id="_Path_695" class="st0" points="170.3,54.7 170.2,54.7 170.2,54.8 "/>
<polygon id="_Path_696" class="st0" points="170.3,254.7 170,254.5 170,254.8 "/>
<polygon id="_Path_697" class="st0" points="170,255.2 170.3,254.7 170,254.8 "/>
<path id="_Path_698" class="st0" d="M170.3,24.7"/>
</svg>
